# xmcd CD database file
#
# Track frame offsets:
#	150
#	19346
#	33504
#	53589
#	69186
#	88562
#	105869
#	121678
#	140544
#	155569
#	173728
#	182851
#	204306
#	218636
#	234924
#	250079
#	264072
#	282148
#	294833
#	312660
#
# Disc length: 4461 seconds
#
# Revision: 0
# Processed by: cddbd v1.4PL0 Copyright (c) Steve Scherf et al.
# Submitted via: CDex 1.40Beta9
#
DISCID=05116b14
DTITLE=Various  - NFS 84
DYEAR=2003
DGENRE=Country
TTITLE0=Albert Lee - Heartbreak Hill
TTITLE1=Laurel Edwards - Feedom road
TTITLE2=Billy Bridge - post-It Note Proposal
TTITLE3=Sara Storer - Mallee Girl
TTITLE4=Jeff Aschman - Dhe Deua River Dance
TTITLE5=Brett Goodwin - Backyard Builder
TTITLE6=Ronni Rae Rivers - Happy New Year
TTITLE7=Neville Anderson - The Jimbarella Kid
TTITLE8=Rodney Vincent - Grandma's House
TTITLE9=Jeri McInerney - The One
TTITLE10=Trev Warner - Livin' The Honky Tonk Life
TTITLE11=Sharon Benjamin - Hidden in the Lights
TTITLE12=Mark Tempany - Summer
TTITLE13=Michael Carr - Up On His Shoulders
TTITLE14=Melina Schneider and Billy Thorpe - When the Last Child Leaves Home
TTITLE15=Travis Sinclair - Eating Up Bitumen
TTITLE16=Bella - Tumbling Down
TTITLE17=Rob Wilson - Same ol' Love
TTITLE18=Diana Woods - In A Little While
TTITLE19=Trevor Knight - Across the Miles
EXTD=YEAR: 2003 ID3G: 2
EXTT0=
EXTT1=
EXTT2=
EXTT3=
EXTT4=
EXTT5=
EXTT6=
EXTT7=
EXTT8=
EXTT9=
EXTT10=
EXTT11=
EXTT12=
EXTT13=
EXTT14=
EXTT15=
EXTT16=
EXTT17=
EXTT18=
EXTT19=
PLAYORDER=
